<svg xmlns="http://www.w3.org/2000/svg" version="1.1" xmlns:xlink="http://www.w3.org/1999/xlink" xmlns:svgjs="http://svgjs.dev/svgjs" width="2000" height="1252" viewBox="0 0 2000 1252"><g transform="matrix(1,0,0,1,-1.2121212121212466,-2.01935483870966)"><svg viewBox="0 0 396 248" data-background-color="#636365" preserveAspectRatio="xMidYMid meet" height="1252" width="2000" xmlns="http://www.w3.org/2000/svg" xmlns:xlink="http://www.w3.org/1999/xlink"><g id="tight-bounds" transform="matrix(1,0,0,1,0.2400000000000091,0.4000000000000057)"><svg viewBox="0 0 395.52 247.2" height="247.2" width="395.52"><g><svg></svg></g><g><svg viewBox="0 0 395.52 247.2" height="247.2" width="395.52"><g transform="matrix(1,0,0,1,75.54432,90.18775279488669)"><svg viewBox="0 0 244.43135999999998 66.8244944102266" height="66.8244944102266" width="244.43135999999998"><g><svg viewBox="0 0 244.43135999999998 66.8244944102266" height="66.8244944102266" width="244.43135999999998"><g><svg viewBox="0 0 244.43135999999998 66.8244944102266" height="66.8244944102266" width="244.43135999999998"><g><svg viewBox="0 0 244.43135999999998 66.8244944102266" height="66.8244944102266" width="244.43135999999998"><g id="textblocktransform"><svg viewBox="0 0 244.43135999999998 66.8244944102266" height="66.8244944102266" width="244.43135999999998" id="textblock"><g><svg viewBox="0 0 244.43135999999998 66.8244944102266" height="66.8244944102266" width="244.43135999999998"><g transform="matrix(1,0,0,1,0,0)"><svg width="244.43135999999998" viewBox="4.6 -37.1 172.09 47.05" height="66.8244944102266" data-palette-color="#ffffff"><path d="M4.6-35L19.8-35Q23.45-35 26.08-33.95 28.7-32.9 30.13-30.95 31.55-29 31.55-26.25L31.55-26.25Q31.55-23.3 29.9-21.2 28.25-19.1 25.4-18.45L25.4-18.45Q28.9-17.85 30.9-15.5 32.9-13.15 32.9-9.6L32.9-9.6Q32.9-6.6 31.35-4.45 29.8-2.3 26.95-1.15 24.1 0 20.15 0L20.15 0 4.6 0 4.6-35ZM10.5-20.45L19.5-20.45Q22.3-20.45 23.9-21.73 25.5-23 25.5-25.3L25.5-25.3Q25.5-27.55 23.9-28.78 22.3-30 19.5-29.95L19.5-29.95 10.5-29.95 10.5-20.45ZM10.5-5.05L19.5-5.05Q22.95-5 24.9-6.38 26.85-7.75 26.85-10.3L26.85-10.3Q26.85-12.7 24.9-14.08 22.95-15.45 19.5-15.4L19.5-15.4 10.5-15.4 10.5-5.05ZM59.55 0L59.55-15Q59.55-18.1 57.85-19.88 56.15-21.65 53.15-21.65L53.15-21.65Q49.6-21.6 47.57-19.15 45.55-16.7 45.55-13.05L45.55-13.05 43.95-13.05Q43.95-18 45.35-21 46.75-24 49.32-25.38 51.9-26.75 55.4-26.75L55.4-26.75Q58.5-26.75 60.72-25.5 62.95-24.25 64.12-21.98 65.3-19.7 65.3-16.5L65.3-16.5 65.3 0 59.55 0ZM39.8 0L39.8-37.1 45.55-37.1 45.55 0 39.8 0ZM89.65-11.85L81.7-11.85Q78.9-11.85 77.55-11 76.2-10.15 76.2-8.2L76.2-8.2Q76.2-6.35 77.57-5.25 78.95-4.15 81.34-4.15L81.34-4.15Q83.5-4.15 85.2-4.9 86.9-5.65 87.9-6.93 88.9-8.2 88.95-9.8L88.95-9.8 90.05-4.95Q88.8-2.35 86.25-1.05 83.7 0.25 80.15 0.25L80.15 0.25Q77.3 0.25 75.2-0.85 73.09-1.95 71.95-3.83 70.8-5.7 70.8-8L70.8-8Q70.8-11.6 73.42-13.75 76.05-15.9 80.84-15.95L80.84-15.95 89.65-15.95 89.65-11.85ZM88.95 0L88.9-16.85Q88.9-19.45 87.3-20.9 85.7-22.35 82.55-22.35L82.55-22.35Q80.65-22.35 78.67-21.65 76.7-20.95 74.7-19.6L74.7-19.6 72.34-23.3Q74.2-24.45 75.84-25.2 77.5-25.95 79.37-26.35 81.25-26.75 83.8-26.75L83.8-26.75Q88.95-26.75 91.72-24.28 94.5-21.8 94.55-17.45L94.55-17.45 94.59 0 88.95 0ZM108.39 0L98.09-26.55 104.09-26.55 111.49-5.3 118.79-26.55 124.54-26.55 114.34 0 108.39 0ZM151.09-26.55L138.99 3.75Q137.74 6.8 135.54 8.38 133.34 9.95 130.34 9.95L130.34 9.95Q128.54 9.95 127.07 9.4 125.59 8.85 124.19 7.75L124.19 7.75 126.64 3.5Q128.44 4.8 130.09 4.8L130.09 4.8Q131.39 4.8 132.44 4.05 133.49 3.3 134.14 1.75L134.14 1.75 135.04-0.35 124.04-26.55 129.99-26.55 137.94-6.05 145.34-26.55 151.09-26.55ZM171.74-11.85L163.79-11.85Q160.99-11.85 159.64-11 158.29-10.15 158.29-8.2L158.29-8.2Q158.29-6.35 159.66-5.25 161.04-4.15 163.44-4.15L163.44-4.15Q165.59-4.15 167.29-4.9 168.99-5.65 169.99-6.93 170.99-8.2 171.04-9.8L171.04-9.8 172.14-4.95Q170.89-2.35 168.34-1.05 165.79 0.25 162.24 0.25L162.24 0.25Q159.39 0.25 157.29-0.85 155.19-1.95 154.04-3.83 152.89-5.7 152.89-8L152.89-8Q152.89-11.6 155.51-13.75 158.14-15.9 162.94-15.95L162.94-15.95 171.74-15.95 171.74-11.85ZM171.04 0L170.99-16.85Q170.99-19.45 169.39-20.9 167.79-22.35 164.64-22.35L164.64-22.35Q162.74-22.35 160.76-21.65 158.79-20.95 156.79-19.6L156.79-19.6 154.44-23.3Q156.29-24.45 157.94-25.2 159.59-25.95 161.46-26.35 163.34-26.75 165.89-26.75L165.89-26.75Q171.04-26.75 173.81-24.28 176.59-21.8 176.64-17.45L176.64-17.45 176.69 0 171.04 0Z" opacity="1" transform="matrix(1,0,0,1,0,0)" fill="#ffffff" class="wordmark-text-0" data-fill-palette-color="primary" id="text-0"></path></svg></g></svg></g></svg></g></svg></g></svg></g></svg></g></svg></g><g><path d="M0 123.6c0-68.262 55.338-123.6 123.6-123.6 53.779 0 99.536 34.346 116.531 82.3l-3.202 0c-16.862-46.258-61.238-79.287-113.329-79.287-66.598 0-120.587 53.989-120.587 120.587 0 66.598 53.989 120.587 120.587 120.587 52.091 0 96.467-33.029 113.329-79.287h3.202c-16.996 47.954-62.753 82.3-116.531 82.3-68.262 0-123.6-55.338-123.6-123.6z" fill="#ffffff" stroke="transparent" data-fill-palette-color="tertiary"></path></g></svg></g><defs></defs></svg><rect width="395.52" height="247.2" fill="none" stroke="none" visibility="hidden"></rect></g></svg></g></svg>